<mxfile host="app.diagrams.net" modified="2020-04-17T02:28:43.041Z" agent="5.0 (Windows)" etag="y5cZ0ZHP7rlHkyA4y2Le" version="12.9.14" type="github">
  <diagram id="TXk5N9r_KYjATNX1HEGY" name="Page-1">
    <mxGraphModel dx="868" dy="479" grid="1" gridSize="10" guides="1" tooltips="1" connect="1" arrows="1" fold="1" page="1" pageScale="1" pageWidth="850" pageHeight="1100" math="0" shadow="0">
      <root>
        <mxCell id="0" />
        <mxCell id="1" parent="0" />
        <mxCell id="tnivI_kaHVQB3wsHPSdl-1" value="User clicks a mouse button" style="rounded=0;whiteSpace=wrap;html=1;" vertex="1" parent="1">
          <mxGeometry x="365" y="20" width="120" height="60" as="geometry" />
        </mxCell>
        <mxCell id="tnivI_kaHVQB3wsHPSdl-2" value="Left mouse button" style="endArrow=classic;html=1;entryX=0.5;entryY=0;entryDx=0;entryDy=0;" edge="1" parent="1" target="tnivI_kaHVQB3wsHPSdl-23">
          <mxGeometry width="50" height="50" relative="1" as="geometry">
            <mxPoint x="375" y="200" as="sourcePoint" />
            <mxPoint x="220" y="260" as="targetPoint" />
          </mxGeometry>
        </mxCell>
        <mxCell id="tnivI_kaHVQB3wsHPSdl-5" value="Mouse Wheel" style="endArrow=classic;html=1;" edge="1" parent="1">
          <mxGeometry width="50" height="50" relative="1" as="geometry">
            <mxPoint x="424" y="200" as="sourcePoint" />
            <mxPoint x="424" y="300" as="targetPoint" />
          </mxGeometry>
        </mxCell>
        <mxCell id="tnivI_kaHVQB3wsHPSdl-6" value="Right mouse button" style="endArrow=classic;html=1;entryX=0.192;entryY=-0.033;entryDx=0;entryDy=0;entryPerimeter=0;" edge="1" parent="1" target="tnivI_kaHVQB3wsHPSdl-21">
          <mxGeometry width="50" height="50" relative="1" as="geometry">
            <mxPoint x="470" y="200" as="sourcePoint" />
            <mxPoint x="610" y="280" as="targetPoint" />
          </mxGeometry>
        </mxCell>
        <mxCell id="tnivI_kaHVQB3wsHPSdl-7" value="Is mouse wheel currently held down?" style="rounded=0;whiteSpace=wrap;html=1;" vertex="1" parent="1">
          <mxGeometry x="365" y="300" width="120" height="60" as="geometry" />
        </mxCell>
        <mxCell id="tnivI_kaHVQB3wsHPSdl-8" value="No" style="endArrow=classic;html=1;" edge="1" parent="1">
          <mxGeometry width="50" height="50" relative="1" as="geometry">
            <mxPoint x="375" y="360" as="sourcePoint" />
            <mxPoint x="375" y="520" as="targetPoint" />
          </mxGeometry>
        </mxCell>
        <mxCell id="tnivI_kaHVQB3wsHPSdl-9" value="&lt;div&gt;Change cursor &lt;br&gt;&lt;/div&gt;&lt;div&gt;to crosshair&lt;br&gt;&lt;/div&gt;" style="rounded=0;whiteSpace=wrap;html=1;" vertex="1" parent="1">
          <mxGeometry x="365" y="140" width="120" height="60" as="geometry" />
        </mxCell>
        <mxCell id="tnivI_kaHVQB3wsHPSdl-10" value="" style="endArrow=classic;html=1;entryX=0.442;entryY=0.017;entryDx=0;entryDy=0;entryPerimeter=0;" edge="1" parent="1" target="tnivI_kaHVQB3wsHPSdl-9">
          <mxGeometry width="50" height="50" relative="1" as="geometry">
            <mxPoint x="420" y="80" as="sourcePoint" />
            <mxPoint x="470" y="30" as="targetPoint" />
          </mxGeometry>
        </mxCell>
        <mxCell id="tnivI_kaHVQB3wsHPSdl-12" value="Yes" style="endArrow=classic;html=1;" edge="1" parent="1">
          <mxGeometry width="50" height="50" relative="1" as="geometry">
            <mxPoint x="450" y="360" as="sourcePoint" />
            <mxPoint x="450" y="420" as="targetPoint" />
          </mxGeometry>
        </mxCell>
        <mxCell id="tnivI_kaHVQB3wsHPSdl-13" value="Color pixel of mouse&#39;s current coordinates" style="rounded=0;whiteSpace=wrap;html=1;" vertex="1" parent="1">
          <mxGeometry x="425" y="420" width="120" height="60" as="geometry" />
        </mxCell>
        <mxCell id="tnivI_kaHVQB3wsHPSdl-14" value="" style="endArrow=classic;html=1;entryX=1;entryY=0.5;entryDx=0;entryDy=0;" edge="1" parent="1" target="tnivI_kaHVQB3wsHPSdl-7">
          <mxGeometry width="50" height="50" relative="1" as="geometry">
            <mxPoint x="530" y="330" as="sourcePoint" />
            <mxPoint x="580" y="280" as="targetPoint" />
          </mxGeometry>
        </mxCell>
        <mxCell id="tnivI_kaHVQB3wsHPSdl-15" value="&lt;div&gt;Repeat for next &lt;br&gt;&lt;/div&gt;&lt;div&gt;frame&lt;br&gt;&lt;/div&gt;" style="endArrow=none;html=1;exitX=0.858;exitY=0;exitDx=0;exitDy=0;exitPerimeter=0;" edge="1" parent="1" source="tnivI_kaHVQB3wsHPSdl-13">
          <mxGeometry width="50" height="50" relative="1" as="geometry">
            <mxPoint x="480" y="380" as="sourcePoint" />
            <mxPoint x="530" y="330" as="targetPoint" />
          </mxGeometry>
        </mxCell>
        <mxCell id="tnivI_kaHVQB3wsHPSdl-16" value="Set cursor to default" style="rounded=0;whiteSpace=wrap;html=1;" vertex="1" parent="1">
          <mxGeometry x="320" y="520" width="120" height="60" as="geometry" />
        </mxCell>
        <mxCell id="tnivI_kaHVQB3wsHPSdl-18" value="" style="endArrow=classic;html=1;entryX=1;entryY=0.75;entryDx=0;entryDy=0;" edge="1" parent="1" target="tnivI_kaHVQB3wsHPSdl-1">
          <mxGeometry width="50" height="50" relative="1" as="geometry">
            <mxPoint x="830" y="65" as="sourcePoint" />
            <mxPoint x="830" y="40" as="targetPoint" />
          </mxGeometry>
        </mxCell>
        <mxCell id="tnivI_kaHVQB3wsHPSdl-19" value="" style="endArrow=none;html=1;" edge="1" parent="1">
          <mxGeometry width="50" height="50" relative="1" as="geometry">
            <mxPoint x="830" y="580" as="sourcePoint" />
            <mxPoint x="830" y="70" as="targetPoint" />
          </mxGeometry>
        </mxCell>
        <mxCell id="tnivI_kaHVQB3wsHPSdl-20" value="" style="endArrow=none;html=1;" edge="1" parent="1">
          <mxGeometry width="50" height="50" relative="1" as="geometry">
            <mxPoint x="440" y="575" as="sourcePoint" />
            <mxPoint x="830" y="575" as="targetPoint" />
          </mxGeometry>
        </mxCell>
        <mxCell id="tnivI_kaHVQB3wsHPSdl-21" value="Record mouse&#39;s current coordinates, fill in a circle at that point" style="rounded=0;whiteSpace=wrap;html=1;" vertex="1" parent="1">
          <mxGeometry x="620" y="380" width="120" height="60" as="geometry" />
        </mxCell>
        <mxCell id="tnivI_kaHVQB3wsHPSdl-22" value="" style="endArrow=classic;html=1;entryX=1;entryY=0.25;entryDx=0;entryDy=0;" edge="1" parent="1" target="tnivI_kaHVQB3wsHPSdl-16">
          <mxGeometry width="50" height="50" relative="1" as="geometry">
            <mxPoint x="720" y="440" as="sourcePoint" />
            <mxPoint x="770" y="390" as="targetPoint" />
          </mxGeometry>
        </mxCell>
        <mxCell id="tnivI_kaHVQB3wsHPSdl-25" value="" style="edgeStyle=orthogonalEdgeStyle;rounded=0;orthogonalLoop=1;jettySize=auto;html=1;" edge="1" parent="1" source="tnivI_kaHVQB3wsHPSdl-23" target="tnivI_kaHVQB3wsHPSdl-24">
          <mxGeometry relative="1" as="geometry" />
        </mxCell>
        <mxCell id="tnivI_kaHVQB3wsHPSdl-23" value="Record user&#39;s mouse coordinates, draw point at current coordinates" style="rounded=0;whiteSpace=wrap;html=1;" vertex="1" parent="1">
          <mxGeometry x="160" y="290" width="120" height="60" as="geometry" />
        </mxCell>
        <mxCell id="tnivI_kaHVQB3wsHPSdl-24" value="Get next mouse input" style="rounded=0;whiteSpace=wrap;html=1;" vertex="1" parent="1">
          <mxGeometry x="160" y="370" width="120" height="60" as="geometry" />
        </mxCell>
        <mxCell id="tnivI_kaHVQB3wsHPSdl-26" value="Right button (Cancel)" style="endArrow=classic;html=1;" edge="1" parent="1">
          <mxGeometry x="-0.2" y="30" width="50" height="50" relative="1" as="geometry">
            <mxPoint x="260" y="430" as="sourcePoint" />
            <mxPoint x="260" y="480" as="targetPoint" />
            <mxPoint as="offset" />
          </mxGeometry>
        </mxCell>
        <mxCell id="tnivI_kaHVQB3wsHPSdl-27" value="Clear all recorded points" style="rounded=0;whiteSpace=wrap;html=1;" vertex="1" parent="1">
          <mxGeometry x="220" y="480" width="90" height="40" as="geometry" />
        </mxCell>
        <mxCell id="tnivI_kaHVQB3wsHPSdl-28" value="" style="endArrow=classic;html=1;entryX=0;entryY=0.25;entryDx=0;entryDy=0;" edge="1" parent="1" target="tnivI_kaHVQB3wsHPSdl-16">
          <mxGeometry width="50" height="50" relative="1" as="geometry">
            <mxPoint x="280" y="520" as="sourcePoint" />
            <mxPoint x="330" y="470" as="targetPoint" />
          </mxGeometry>
        </mxCell>
        <mxCell id="tnivI_kaHVQB3wsHPSdl-29" value="Left button or wheel" style="endArrow=classic;html=1;entryX=0.667;entryY=-0.1;entryDx=0;entryDy=0;entryPerimeter=0;" edge="1" parent="1" target="tnivI_kaHVQB3wsHPSdl-30">
          <mxGeometry width="50" height="50" relative="1" as="geometry">
            <mxPoint x="180" y="430" as="sourcePoint" />
            <mxPoint x="180" y="480" as="targetPoint" />
          </mxGeometry>
        </mxCell>
        <mxCell id="tnivI_kaHVQB3wsHPSdl-30" value="Add current mouse coords as a point" style="rounded=0;whiteSpace=wrap;html=1;" vertex="1" parent="1">
          <mxGeometry x="80" y="490" width="90" height="40" as="geometry" />
        </mxCell>
        <mxCell id="tnivI_kaHVQB3wsHPSdl-32" value="" style="endArrow=classic;html=1;" edge="1" parent="1">
          <mxGeometry width="50" height="50" relative="1" as="geometry">
            <mxPoint x="90" y="380" as="sourcePoint" />
            <mxPoint x="160" y="380" as="targetPoint" />
          </mxGeometry>
        </mxCell>
        <mxCell id="tnivI_kaHVQB3wsHPSdl-33" value="Left button" style="endArrow=none;html=1;" edge="1" parent="1">
          <mxGeometry width="50" height="50" relative="1" as="geometry">
            <mxPoint x="90" y="490" as="sourcePoint" />
            <mxPoint x="90" y="380" as="targetPoint" />
          </mxGeometry>
        </mxCell>
        <mxCell id="tnivI_kaHVQB3wsHPSdl-34" value="Mouse wheel" style="endArrow=classic;html=1;entryX=0;entryY=0.75;entryDx=0;entryDy=0;" edge="1" parent="1" target="tnivI_kaHVQB3wsHPSdl-16">
          <mxGeometry width="50" height="50" relative="1" as="geometry">
            <mxPoint x="170" y="530" as="sourcePoint" />
            <mxPoint x="220" y="480" as="targetPoint" />
          </mxGeometry>
        </mxCell>
      </root>
    </mxGraphModel>
  </diagram>
</mxfile>
